Coordinates
version=1
nRows=5
nColumns=46
inDegrees=yes

Units are S.I. units (second, meters, Newtons, ...)
Angles are in degrees.

endheader
time	pelvis_tilt	pelvis_list	pelvis_rotation	pelvis_tx	pelvis_ty	pelvis_tz	bb_angle	bb_tx	bb_ty	bb_tz	hip_flexion_r	hip_adduction_r	hip_rotation_r	knee_angle_r	knee_angle_r_beta	ankle_angle_r	subtalar_angle_r	mtp_angle_r	crank_angle_r	hip_flexion_l	hip_adduction_l	hip_rotation_l	knee_angle_l	knee_angle_l_beta	ankle_angle_l	subtalar_angle_l	mtp_angle_l	crank_angle_l	lumbar_extension	lumbar_bending	lumbar_rotation	arm_flex_r	arm_add_r	arm_rot_r	elbow_flex_r	pro_sup_r	wrist_flex_r	wrist_dev_r	arm_flex_l	arm_add_l	arm_rot_l	elbow_flex_l	pro_sup_l	wrist_flex_l	wrist_dev_l
      2.50500000	    -15.66943216	      1.45749345	     -2.49774295	      0.12109958	      1.09745489	     -0.26539706	      0.00000000	      0.50000000	      0.00000000	      0.25000000	     52.12406339	     -3.83468993	      0.25991198	     37.70382577	      0.65805590	    -10.67382702	     -9.29315278	      0.00000000	      0.00000000	     77.74961186	     -1.90795844	      2.82580555	    110.57734674	      1.92993878	      1.41412263	    -16.44249103	      0.00000000	      0.00000000	    -64.35720413	      3.32750843	     -1.57859290	     89.24150792	    -10.77405980	     30.09384699	     59.99203872	     37.45549593	      0.00000000	      0.00000000	     86.44748922	    -24.75807026	     34.39048517	     59.87263990	     43.53193845	      0.00000000	      0.00000000
      2.51000000	    -15.39824180	      1.64508331	     -2.53403483	      0.12150244	      1.09776892	     -0.26504885	      0.00000000	      0.50000000	      0.00000000	      0.25000000	     51.24203654	     -4.10818198	     -0.04684371	     36.96881320	      0.64522751	    -11.63331366	     -8.63257710	      0.00000000	      0.00000000	     78.35495282	     -1.88694926	      2.71825779	    111.34302684	      1.94330242	      1.53893572	    -16.47653370	      0.00000000	      0.00000000	    -64.42342290	      3.00757771	     -1.72556083	     89.14084213	    -10.87605798	     30.08140425	     59.80653865	     37.43167155	      0.00000000	      0.00000000	     86.37338579	    -24.44071252	     34.41428354	     59.80408045	     43.53301041	      0.00000000	      0.00000000
      2.51500000	    -14.88482481	      1.67954580	     -2.54794568	      0.12185022	      1.09861765	     -0.26455446	      0.00000000	      0.50000000	      0.00000000	      0.25000000	     50.02385473	     -4.23141558	     -0.38195967	     36.15988862	      0.63110911	    -12.81195915	     -8.50781348	      0.00000000	      0.00000000	     78.70333548	     -1.93658076	      2.75314799	    112.06016621	      1.95581886	      1.51980975	    -16.40828406	      0.00000000	      0.00000000	    -64.64007926	      2.71902756	     -1.60277832	     89.14233037	    -11.09823570	     30.25004970	     58.86230163	     37.31663848	      0.00000000	      0.00000000	     86.50958345	    -23.40676005	     34.40729147	     58.61361899	     43.38423232	      0.00000000	      0.00000000
      2.52000000	    -14.67920917	      1.86719630	     -2.56774759	      0.12214598	      1.09906389	     -0.26415123	      0.00000000	      0.50000000	      0.00000000	      0.25000000	     49.25823807	     -4.49935944	     -0.68028803	     35.51969255	      0.61993558	    -13.84068691	     -7.84316727	      0.00000000	      0.00000000	     79.33701085	     -1.88547645	      2.68367236	    112.69044014	      1.96681922	      1.48670194	    -16.36240026	      0.00000000	      0.00000000	    -64.64821697	      2.35546884	     -1.81023281	     89.03289843	    -11.19866240	     30.25529899	     58.65451842	     37.29346146	      0.00000000	      0.00000000	     86.47848361	    -23.12500179	     34.44091014	     58.50644462	     43.37720664	      0.00000000	      0.00000000
      2.52500000	    -14.35574850	      1.94350200	     -2.53378929	      0.12244579	      1.09993351	     -0.26368580	      0.00000000	      0.50000000	      0.00000000	      0.25000000	     48.29838475	     -4.69233306	     -1.02530011	     34.80775043	      0.60750985	    -14.95423692	     -7.39811754	      0.00000000	      0.00000000	     79.83156518	     -1.86643869	      2.70368644	    113.26017955	      1.97676304	      1.64461823	    -16.45347100	      0.00000000	      0.00000000	    -64.76100774	      2.08085108	     -1.93294519	     88.97084547	    -11.31712784	     30.32583987	     58.18231307	     37.22970892	      0.00000000	      0.00000000	     86.45765032	    -22.72487977	     34.56945737	     58.22399211	     43.35145781	      0.00000000	      0.00000000
